<svg id="svg" version="1.1" xmlns="http://www.w3.org/2000/svg" xmlns:xlink="http://www.w3.org/1999/xlink" width="400" height="400" viewBox="0, 0, 400,400">
<g id="svgg">
<path id="path0" d="M109.570 44.378 C 104.524 45.586,99.239 48.463,96.114 51.705 C 94.387 53.497,94.373 53.503,93.574 52.753 C 87.444 46.994,73.576 49.004,67.870 56.478 C 65.035 60.191,61.329 69.539,61.328 72.982 C 61.328 73.483,61.194 73.835,61.030 73.763 C 60.867 73.691,59.683 73.109,58.400 72.468 C 53.788 70.165,47.708 71.028,42.041 74.790 C 33.071 80.744,28.823 99.216,26.768 141.211 C 24.966 178.031,27.093 202.589,33.882 223.347 C 35.992 229.798,35.935 231.175,33.455 233.654 C 31.569 235.540,30.925 238.345,28.717 254.297 C 28.166 258.271,27.261 264.399,26.706 267.913 C 25.469 275.736,25.558 278.158,27.211 281.641 C 28.136 283.589,28.374 284.549,28.236 285.769 C 27.349 293.611,40.587 300.851,64.185 305.429 C 92.779 310.976,109.171 308.427,113.950 297.689 C 114.467 296.526,115.823 294.505,116.962 293.197 C 119.580 290.191,121.423 285.017,121.487 280.491 C 121.489 280.371,122.339 282.119,123.377 284.375 C 136.198 312.250,162.832 329.826,195.605 332.037 C 229.058 334.295,261.845 315.255,276.590 285.008 C 279.175 279.705,278.813 279.411,279.904 287.695 C 280.631 293.221,281.204 294.669,283.976 298.000 C 285.117 299.371,286.556 301.503,287.173 302.738 C 291.920 312.238,305.347 314.681,331.061 310.723 C 347.617 308.175,363.284 302.762,368.866 297.661 C 371.443 295.306,372.070 293.769,371.740 290.617 C 371.543 288.728,371.622 288.277,372.254 287.706 C 374.466 285.704,374.626 282.483,373.033 272.034 C 369.140 246.502,368.040 241.705,365.019 237.089 C 364.388 236.126,364.441 235.854,366.569 229.117 C 373.436 207.377,375.826 188.377,375.806 155.664 C 375.784 117.050,372.072 91.312,365.076 81.260 C 360.122 74.142,351.045 71.349,344.247 74.853 L 341.879 76.073 341.441 73.846 C 337.589 54.267,322.294 45.276,308.953 54.748 C 308.447 55.107,307.916 54.784,306.023 52.965 C 294.472 41.869,274.589 45.393,272.426 58.920 C 272.187 60.414,272.061 60.579,271.332 60.347 C 262.949 57.679,257.037 58.756,251.123 64.032 C 243.797 70.565,243.461 76.654,249.368 95.760 C 252.606 106.235,255.485 117.096,257.622 126.898 C 259.151 133.911,262.226 151.576,261.964 151.838 C 261.706 152.096,256.843 146.123,251.563 139.063 C 236.732 119.232,224.094 114.975,213.473 126.233 C 206.210 133.932,206.518 141.213,214.712 155.562 C 218.549 162.280,219.196 163.603,218.405 163.114 C 216.024 161.643,194.807 160.993,188.281 162.191 C 186.455 162.526,184.911 162.756,184.849 162.701 C 184.787 162.646,186.498 159.077,188.651 154.769 C 196.866 138.324,196.838 129.585,188.546 122.433 C 178.531 113.795,164.953 118.639,152.930 135.140 C 143.080 148.657,140.470 151.986,141.187 150.117 C 141.327 149.751,142.148 145.313,143.011 140.253 C 145.807 123.863,148.747 111.296,153.891 93.750 C 159.248 75.475,159.207 69.848,153.669 63.728 C 148.287 57.781,138.833 55.250,132.833 58.149 C 131.882 58.608,131.071 58.984,131.031 58.984 C 130.992 58.984,130.841 58.248,130.698 57.348 C 129.308 48.661,118.753 42.182,109.570 44.378 M118.620 51.550 C 125.479 54.580,126.367 59.722,122.025 71.274 C 115.445 88.779,106.858 132.093,109.453 134.688 C 111.791 137.026,114.495 134.225,115.035 128.906 C 116.652 112.977,124.260 80.094,128.210 71.960 C 132.615 62.892,140.630 60.678,147.564 66.613 C 152.397 70.750,152.662 76.559,148.614 89.648 C 141.907 111.339,139.245 123.107,134.758 150.904 C 133.816 156.737,134.010 159.846,135.413 161.396 C 137.790 164.022,143.871 158.738,152.148 146.855 C 159.288 136.605,162.691 132.670,167.691 128.881 C 174.151 123.986,180.546 123.781,184.985 128.327 C 190.177 133.645,189.341 139.315,180.848 156.398 L 176.544 165.056 173.135 166.198 C 169.161 167.531,158.817 172.685,153.594 175.935 C 133.789 188.261,117.556 213.696,115.734 235.257 C 115.439 238.748,115.285 238.890,110.742 239.855 C 93.914 243.432,55.889 238.716,46.993 231.950 C 37.779 224.941,32.802 200.393,32.818 162.027 C 32.833 122.620,36.310 94.547,42.441 84.311 C 46.383 77.728,53.679 75.842,58.099 80.262 C 60.107 82.270,60.122 82.471,58.799 89.634 C 58.267 92.513,57.473 98.440,57.034 102.805 C 56.595 107.171,55.962 113.291,55.628 116.406 C 54.741 124.680,54.443 134.977,55.069 135.731 C 57.042 138.109,60.156 135.633,60.157 131.686 C 60.158 123.733,62.358 103.125,64.686 89.258 C 65.444 84.746,66.324 79.477,66.641 77.550 C 67.797 70.538,70.837 63.160,73.910 59.911 C 79.179 54.340,88.813 54.697,91.812 60.576 L 92.629 62.178 90.876 69.273 C 86.929 85.248,85.472 93.120,82.587 114.063 C 80.591 128.548,80.562 130.000,82.242 131.101 C 85.370 133.151,85.899 131.664,88.505 113.477 C 90.981 96.195,91.974 90.661,95.299 75.586 C 97.493 65.638,99.746 58.762,101.769 55.844 C 105.037 51.128,113.045 49.087,118.620 51.550 M295.788 53.803 C 299.871 55.641,302.816 59.525,304.851 65.759 C 307.502 73.883,312.738 100.142,315.026 116.797 C 317.159 132.319,317.511 133.594,319.667 133.594 C 322.209 133.594,322.656 131.440,321.704 123.786 C 319.066 102.562,316.217 86.776,311.868 69.271 C 310.322 63.050,310.358 62.752,312.930 60.237 C 316.942 56.314,325.040 57.170,329.259 61.964 C 332.031 65.113,335.595 73.956,336.345 79.542 C 336.571 81.233,337.092 84.463,337.502 86.719 C 338.482 92.121,340.873 108.876,341.403 114.063 C 341.634 116.318,342.072 120.449,342.377 123.242 C 342.681 126.035,343.051 130.562,343.198 133.302 C 343.479 138.539,343.704 139.179,345.620 140.195 C 346.732 140.784,347.909 140.438,348.581 139.326 C 349.655 137.549,346.397 103.854,343.900 90.911 C 342.446 83.375,344.177 80.445,350.262 80.137 C 362.348 79.527,367.138 94.795,369.178 140.430 C 370.228 163.918,368.559 190.930,364.809 211.133 C 362.905 221.389,358.863 232.933,356.384 235.192 C 347.818 242.997,307.050 249.365,291.153 245.380 C 286.560 244.229,286.489 244.137,286.171 238.867 C 284.305 207.962,261.956 177.942,232.813 167.194 C 227.601 165.272,227.897 165.550,223.859 158.793 C 214.202 142.636,212.795 135.971,217.953 130.813 C 225.787 122.978,234.528 127.181,248.709 145.603 C 263.129 164.334,265.021 166.229,267.165 164.085 C 269.833 161.417,269.075 151.950,264.224 127.344 C 262.145 116.798,260.104 109.256,254.080 89.844 C 250.430 78.083,250.664 73.844,255.213 69.357 C 261.623 63.033,270.392 64.657,274.547 72.938 C 278.058 79.933,284.518 105.946,287.476 125.000 C 287.926 127.900,288.463 131.328,288.668 132.617 C 289.217 136.072,291.370 137.602,293.830 136.285 C 296.704 134.747,287.289 88.695,280.796 72.531 C 277.125 63.391,277.203 59.520,281.134 55.750 C 284.358 52.659,291.220 51.747,295.788 53.803 M83.594 146.093 C 64.319 147.841,36.575 158.684,42.260 162.247 C 42.774 162.569,43.758 162.258,46.752 160.829 C 69.816 149.819,94.264 147.667,115.932 154.740 C 118.784 155.671,119.531 155.379,119.531 153.333 C 119.531 148.708,99.422 144.657,83.594 146.093 M290.475 161.924 C 289.454 162.945,289.822 163.298,293.182 164.517 C 301.408 167.501,314.119 174.767,323.366 181.770 C 329.495 186.412,330.469 186.721,330.469 184.023 C 330.469 178.938,293.750 158.649,290.475 161.924 M274.614 167.363 L 273.642 167.901 275.395 168.592 C 290.887 174.706,300.599 187.043,305.655 207.031 C 306.008 208.428,306.458 210.186,306.654 210.938 C 307.517 214.240,310.864 213.633,310.359 210.266 C 309.206 202.574,303.730 189.085,299.145 182.639 C 292.430 173.199,279.085 164.888,274.614 167.363 M209.180 168.402 C 212.970 168.877,219.531 170.332,219.531 170.698 C 219.531 170.844,217.993 171.628,216.113 172.442 C 212.892 173.836,207.271 176.674,197.507 181.837 L 193.255 184.085 189.694 183.890 C 186.894 183.736,184.366 183.186,177.860 181.314 C 173.311 180.005,168.437 178.816,167.030 178.672 C 163.790 178.340,163.861 178.256,169.837 175.367 C 184.392 168.327,194.411 166.554,209.180 168.402 M228.691 173.570 C 229.337 174.043,229.345 174.117,228.766 174.339 C 228.360 174.495,228.125 174.384,228.125 174.038 C 228.125 173.738,227.729 173.416,227.246 173.323 C 226.446 173.168,226.439 173.148,227.171 173.100 C 227.614 173.071,228.298 173.282,228.691 173.570 M225.525 175.421 C 226.351 175.651,226.960 175.905,226.879 175.986 C 226.797 176.067,225.858 175.894,224.791 175.602 C 223.724 175.309,223.115 175.055,223.438 175.037 C 223.760 175.019,224.699 175.192,225.525 175.421 M227.148 176.966 C 232.366 178.627,237.927 181.373,243.314 184.948 C 248.000 188.057,248.465 188.302,247.606 187.207 C 247.119 186.585,247.133 186.573,247.763 187.067 C 248.145 187.367,248.363 187.705,248.248 187.820 C 248.133 187.934,248.372 188.393,248.778 188.838 C 249.567 189.703,250.477 194.050,251.157 200.195 C 251.631 204.486,252.766 218.871,252.634 218.921 C 252.582 218.940,251.045 219.467,249.219 220.091 C 244.466 221.715,236.365 225.148,231.953 227.408 L 228.163 229.350 224.336 226.443 C 216.994 220.868,210.607 217.209,200.725 212.916 C 198.653 212.016,196.680 211.070,196.341 210.815 C 195.557 210.226,194.991 204.269,194.868 195.325 L 194.779 188.892 196.511 187.611 C 200.110 184.948,208.432 180.319,213.974 177.897 C 220.639 174.984,220.874 174.967,227.148 176.966 M235.326 176.131 C 235.445 176.323,235.285 176.579,234.971 176.700 C 234.361 176.934,233.839 176.447,234.255 176.031 C 234.609 175.678,235.073 175.721,235.326 176.131 M238.966 178.133 C 239.507 178.558,239.809 178.906,239.638 178.906 C 239.245 178.906,235.938 176.980,235.938 176.751 C 235.938 176.428,237.988 177.364,238.966 178.133 M234.364 178.500 C 235.329 179.111,234.644 179.257,233.398 178.707 C 232.492 178.306,232.403 178.183,233.008 178.163 C 233.438 178.149,234.048 178.300,234.364 178.500 M240.102 181.852 C 241.034 182.399,241.797 182.943,241.797 183.061 C 241.797 183.238,238.483 181.473,237.923 180.998 C 237.325 180.490,238.694 181.027,240.102 181.852 M173.096 184.331 C 178.118 185.597,183.984 187.224,186.133 187.946 L 190.039 189.258 190.317 195.313 C 190.470 198.643,190.757 203.389,190.954 205.859 C 191.356 210.887,191.396 210.768,188.694 212.604 C 183.015 216.465,174.693 224.247,168.859 231.152 C 166.817 233.569,165.013 235.547,164.849 235.547 C 164.685 235.547,163.782 235.275,162.842 234.942 C 160.075 233.963,146.069 231.712,142.347 231.648 C 141.732 231.637,139.568 224.209,139.045 220.313 C 137.628 209.756,142.493 197.544,152.534 186.458 C 157.642 180.818,158.726 180.706,173.096 184.331 M245.623 185.406 L 246.680 186.438 245.313 185.533 C 243.514 184.343,243.548 184.375,244.093 184.375 C 244.353 184.375,245.041 184.839,245.623 185.406 M251.299 186.172 C 251.902 186.731,252.291 187.293,252.164 187.420 C 252.036 187.547,251.419 187.090,250.793 186.404 C 249.423 184.904,249.763 184.748,251.299 186.172 M257.514 192.480 C 268.254 203.370,273.665 213.149,277.177 228.015 C 278.491 233.574,278.464 233.703,274.647 239.941 C 273.517 241.789,273.872 242.051,271.201 237.397 C 269.936 235.192,268.615 233.039,268.265 232.612 C 267.916 232.185,266.642 230.605,265.435 229.102 C 264.228 227.598,261.869 224.961,260.193 223.242 L 257.147 220.117 256.883 216.211 C 256.460 209.950,254.048 192.005,253.272 189.355 C 252.887 188.039,253.789 188.703,257.514 192.480 M137.743 202.224 C 133.717 212.242,133.521 224.715,137.276 231.975 C 137.741 232.874,137.737 233.132,137.249 233.796 C 134.186 237.972,128.925 249.995,127.680 255.664 C 126.710 260.077,126.764 260.036,124.351 258.195 L 122.337 256.660 122.053 253.241 C 121.878 251.147,121.964 247.698,122.275 244.344 C 122.554 241.332,122.831 237.412,122.892 235.633 C 123.204 226.462,130.041 210.073,137.997 199.430 C 139.732 197.108,139.712 197.325,137.743 202.224 M141.674 201.523 C 141.205 202.575,140.766 203.291,140.700 203.114 C 140.574 202.779,142.081 199.609,142.366 199.609 C 142.455 199.609,142.144 200.470,141.674 201.523 M139.209 208.936 C 139.072 209.622,138.878 210.102,138.778 210.002 C 138.679 209.903,138.719 209.269,138.867 208.594 C 139.219 206.992,139.535 207.307,139.209 208.936 M138.297 214.854 L 137.966 218.945 137.995 215.234 C 138.022 211.816,138.187 210.323,138.503 210.638 C 138.572 210.707,138.479 212.604,138.297 214.854 M198.242 217.068 C 209.968 222.094,224.973 231.443,224.436 233.388 C 224.316 233.824,223.684 237.432,223.031 241.406 C 222.379 245.381,221.579 250.215,221.253 252.148 C 220.608 255.974,218.480 264.000,217.930 264.683 C 216.437 266.536,184.140 270.378,182.953 268.844 C 178.229 262.740,174.110 254.881,170.893 245.835 L 168.647 239.522 169.553 238.218 C 173.877 231.993,191.132 215.347,193.359 215.251 C 193.682 215.238,195.879 216.055,198.242 217.068 M138.558 221.968 C 138.464 222.454,138.384 222.148,138.380 221.289 C 138.375 220.430,138.452 220.032,138.550 220.406 C 138.647 220.779,138.651 221.482,138.558 221.968 M260.332 229.297 C 263.449 233.016,266.581 237.842,268.948 242.570 L 270.801 246.272 270.546 249.330 C 269.882 257.291,266.977 269.334,264.544 274.211 L 263.477 276.352 254.883 280.342 C 250.156 282.537,244.897 284.845,243.195 285.470 L 240.101 286.608 234.591 281.097 C 228.658 275.164,225.422 271.359,223.447 267.994 L 222.200 265.870 223.200 262.330 C 224.578 257.451,225.906 251.112,227.338 242.578 C 228.787 233.948,228.822 233.852,230.903 232.790 C 232.184 232.137,232.421 231.870,231.993 231.566 C 231.566 231.262,231.600 231.226,232.146 231.403 C 232.571 231.540,234.497 230.804,237.029 229.537 C 239.329 228.387,243.351 226.642,245.968 225.661 C 248.584 224.679,251.396 223.527,252.218 223.099 L 253.711 222.323 255.794 224.345 C 256.939 225.457,258.982 227.686,260.332 229.297 M42.086 236.586 C 44.970 238.804,50.920 241.456,57.227 243.335 C 61.260 244.537,71.029 246.260,79.883 247.331 C 91.107 248.690,111.840 247.691,113.836 245.695 C 114.607 244.924,114.884 245.354,114.767 247.142 C 114.618 249.444,114.664 249.429,105.078 250.245 C 80.020 252.379,44.738 245.615,39.874 237.745 C 38.252 235.120,39.399 234.519,42.086 236.586 M150.746 237.135 C 156.043 237.832,158.067 238.182,163.340 239.313 C 164.263 239.511,164.509 239.962,165.628 243.498 C 169.167 254.683,173.533 263.880,178.483 270.576 L 179.386 271.797 178.504 274.473 C 176.400 280.851,168.898 294.141,167.401 294.141 C 164.417 294.141,143.973 289.276,142.773 288.281 C 139.063 285.202,131.851 271.270,130.843 265.234 C 129.329 256.173,138.405 235.355,143.520 236.156 C 144.145 236.254,147.397 236.694,150.746 237.135 M360.865 241.475 L 361.651 242.716 359.048 244.077 C 347.028 250.364,339.065 252.747,320.117 255.726 C 310.026 257.312,292.700 256.537,287.012 254.244 C 286.090 253.873,285.221 250.000,286.059 250.000 C 286.127 250.000,286.946 250.370,287.881 250.821 C 293.924 253.741,309.471 254.204,325.195 251.934 C 341.002 249.651,354.176 245.528,358.256 241.586 C 359.913 239.985,359.921 239.985,360.865 241.475 M279.165 247.754 C 278.796 259.894,276.154 270.894,271.325 280.397 L 270.400 282.216 269.817 280.820 C 268.740 278.242,268.716 277.850,269.514 275.824 C 270.905 272.296,271.854 268.015,273.628 257.264 C 275.351 246.819,275.371 246.742,276.887 244.569 C 277.726 243.367,278.536 241.987,278.686 241.504 C 279.275 239.609,279.373 240.898,279.165 247.754 M38.758 243.683 C 43.114 246.113,54.105 250.189,59.961 251.548 C 74.760 254.980,103.309 256.272,113.672 253.979 L 115.039 253.676 115.523 259.358 C 115.789 262.482,116.116 266.270,116.250 267.773 C 116.430 269.789,116.287 271.483,115.708 274.219 C 115.276 276.260,114.811 278.809,114.674 279.883 C 113.381 290.044,112.990 290.441,103.125 291.604 C 90.518 293.092,76.117 292.058,62.500 288.689 C 60.029 288.078,55.723 287.010,52.930 286.316 C 39.396 282.954,31.275 278.695,32.187 275.439 C 32.285 275.090,32.477 273.838,32.614 272.656 C 32.750 271.475,33.288 268.047,33.807 265.039 C 34.327 262.031,35.204 256.230,35.756 252.148 C 36.750 244.787,37.063 242.969,37.335 242.969 C 37.413 242.969,38.053 243.290,38.758 243.683 M363.785 250.614 C 364.567 254.014,365.363 259.557,365.999 266.016 C 366.242 268.486,366.813 273.105,367.269 276.279 L 368.096 282.051 366.958 283.239 C 364.644 285.656,360.999 287.036,344.531 291.728 C 322.648 297.963,300.450 299.510,291.691 295.412 C 287.515 293.457,287.529 293.494,285.123 278.715 L 283.534 268.953 284.388 264.261 C 284.857 261.681,285.354 259.195,285.492 258.737 L 285.742 257.903 289.453 258.983 C 295.071 260.618,297.383 260.938,303.539 260.933 C 324.199 260.914,351.679 255.004,360.547 248.671 C 362.728 247.114,363.021 247.290,363.785 250.614 M124.899 263.184 C 126.002 264.517,126.738 266.028,127.517 268.555 C 129.089 273.656,131.968 279.848,135.297 285.283 C 137.796 289.365,138.244 290.371,138.461 292.383 C 138.600 293.672,138.793 295.166,138.891 295.703 C 139.058 296.618,138.993 296.593,137.873 295.313 C 132.794 289.507,126.450 276.551,123.863 266.698 C 122.293 260.721,122.443 260.213,124.899 263.184 M219.980 271.533 C 221.038 272.419,222.990 274.473,224.318 276.098 C 225.645 277.722,228.630 281.067,230.951 283.531 C 233.272 285.995,235.271 288.407,235.393 288.892 C 235.817 290.581,227.804 305.061,223.625 310.156 C 219.451 315.247,219.420 315.265,214.187 315.862 C 211.648 316.152,208.340 316.580,206.836 316.812 C 205.332 317.045,201.963 317.338,199.349 317.464 L 194.597 317.694 191.341 315.525 C 184.804 311.170,179.421 305.861,175.054 299.461 L 172.786 296.137 178.287 285.086 L 183.789 274.035 194.336 273.178 C 205.217 272.294,211.646 271.473,215.039 270.533 C 217.840 269.757,217.864 269.762,219.980 271.533 M265.943 282.333 C 266.186 283.143,266.492 285.033,266.623 286.532 L 266.861 289.258 263.430 293.750 C 256.985 302.187,247.875 310.560,239.225 315.996 L 235.838 318.124 234.345 317.265 C 233.461 316.756,232.169 316.401,231.173 316.393 C 229.407 316.378,224.732 315.488,224.335 315.090 C 224.207 314.962,225.157 313.580,226.445 312.019 C 228.897 309.048,231.022 305.700,234.199 299.805 C 238.165 292.444,239.657 290.858,243.945 289.446 C 245.449 288.951,248.613 287.784,250.977 286.852 C 253.340 285.920,255.393 285.157,255.539 285.157 C 255.685 285.157,257.531 284.330,259.640 283.320 C 263.127 281.652,264.626 281.007,265.270 280.898 C 265.397 280.877,265.700 281.522,265.943 282.333 M39.976 286.871 C 61.297 295.256,91.185 299.303,106.543 295.884 C 109.778 295.164,105.767 298.785,101.758 300.204 C 89.800 304.437,55.538 299.022,38.184 290.155 C 34.320 288.181,34.111 287.939,34.621 286.035 C 34.930 284.883,34.913 284.880,39.976 286.871 M365.430 291.439 C 365.430 293.015,362.466 294.798,355.078 297.666 C 352.822 298.542,350.625 299.419,350.195 299.615 C 348.389 300.441,335.458 303.331,328.516 304.461 C 314.972 306.665,301.108 306.372,296.383 303.782 C 295.055 303.054,293.477 301.314,293.828 300.964 C 293.905 300.887,295.721 301.003,297.863 301.222 C 304.090 301.858,319.028 301.740,324.023 301.014 C 332.523 299.780,333.453 299.613,337.305 298.633 C 343.703 297.004,360.198 291.810,363.425 290.408 C 365.078 289.689,365.430 289.870,365.430 291.439 M147.656 293.548 C 152.147 295.141,159.075 296.813,164.192 297.537 L 168.813 298.191 170.475 300.170 C 171.389 301.258,173.210 303.730,174.522 305.664 C 175.868 307.647,178.067 310.212,179.567 311.548 C 183.100 314.694,188.241 318.750,188.697 318.750 C 189.886 318.750,188.709 319.974,186.621 320.908 C 185.278 321.509,183.555 322.412,182.792 322.915 C 179.215 325.273,163.599 318.991,152.539 310.746 C 147.643 307.095,144.531 304.219,144.531 303.344 C 144.531 302.841,144.180 300.721,143.750 298.633 C 142.289 291.532,142.222 291.619,147.656 293.548 M226.288 319.873 L 229.102 320.527 226.172 321.584 C 215.885 325.296,203.411 326.724,190.918 325.622 C 188.222 325.384,185.941 324.609,187.937 324.609 C 188.178 324.609,189.452 323.953,190.769 323.152 L 193.164 321.694 198.828 321.444 C 204.565 321.191,213.101 320.213,217.383 319.318 C 219.994 318.773,222.125 318.905,226.288 319.873 " stroke="none" fill="#210e0f" fill-rule="evenodd"></path>
<path id="path1" d="M107.540 51.603 C 101.408 53.960,99.302 58.297,95.115 77.185 C 91.770 92.277,90.807 97.746,88.100 116.992 C 87.556 120.859,86.932 125.254,86.713 126.758 C 86.085 131.079,83.760 132.979,81.664 130.882 C 80.296 129.515,80.584 126.399,84.598 99.066 C 85.685 91.666,88.787 76.661,90.835 68.895 C 93.294 59.569,91.248 56.281,82.973 56.259 C 74.394 56.235,69.245 63.331,66.566 78.867 C 62.570 102.041,61.520 110.726,60.324 130.482 C 60.035 135.256,59.218 136.719,56.844 136.719 C 54.816 136.719,54.235 135.052,54.495 129.975 C 54.918 121.694,57.439 96.920,58.460 91.016 C 60.046 81.839,60.040 82.371,58.579 80.707 C 53.456 74.873,44.645 78.489,40.660 88.063 C 36.546 97.945,34.043 117.899,33.161 147.852 C 31.840 192.702,36.482 222.219,46.262 231.157 C 49.190 233.834,53.304 235.392,63.867 237.825 C 70.387 239.328,81.785 240.564,91.992 240.876 C 101.809 241.177,105.868 240.812,114.307 238.872 C 115.041 238.704,115.190 238.242,115.602 234.868 C 118.015 215.111,130.030 194.136,146.680 180.618 C 148.812 178.887,154.501 175.000,154.903 175.000 C 155.040 175.000,155.619 174.670,156.190 174.267 C 158.234 172.822,169.301 167.450,172.799 166.205 L 176.367 164.935 180.684 156.393 C 189.686 138.582,190.301 131.931,183.399 127.020 C 175.089 121.107,165.540 127.568,150.552 149.244 C 145.146 157.062,138.382 163.209,136.371 162.132 C 134.104 160.919,133.502 157.496,134.509 151.539 C 136.822 137.846,138.407 128.723,138.880 126.367 C 139.987 120.856,141.013 116.154,141.607 113.867 C 143.777 105.521,144.868 101.620,147.066 94.336 C 152.852 75.164,152.775 70.209,146.623 65.977 C 137.148 59.458,129.745 64.645,125.027 81.109 C 120.787 95.908,114.844 125.435,114.844 131.703 C 114.844 134.460,110.612 136.557,109.100 134.551 C 107.862 132.908,110.210 117.221,114.915 95.703 C 117.411 84.288,119.518 77.163,122.884 68.750 C 126.259 60.317,124.361 53.539,118.019 51.378 C 115.457 50.505,110.095 50.620,107.540 51.603 M284.615 53.672 C 277.572 56.648,276.600 61.439,280.842 72.278 C 283.816 79.877,286.405 88.878,288.701 99.609 C 292.139 115.676,294.050 126.474,294.695 133.488 C 294.923 135.960,294.347 136.719,292.247 136.719 C 289.259 136.719,288.958 136.074,287.685 126.953 C 285.971 114.674,280.165 88.931,277.025 79.688 C 272.895 67.531,267.546 63.421,259.708 66.381 C 250.847 69.727,249.767 76.306,255.277 93.359 C 265.536 125.108,271.422 159.599,267.349 164.099 C 265.113 166.570,263.069 164.547,248.442 145.385 C 238.282 132.074,232.656 127.654,225.898 127.673 C 217.853 127.695,213.665 133.655,215.837 141.993 C 217.043 146.623,226.807 164.962,228.320 165.439 C 259.781 175.347,284.547 206.491,286.201 238.227 C 286.500 243.952,286.652 244.187,290.653 245.097 C 307.748 248.985,345.391 243.535,355.712 235.678 C 357.881 234.026,360.558 227.580,363.227 217.578 C 371.707 185.810,370.848 107.364,361.817 88.748 C 357.857 80.586,350.624 77.610,345.566 82.062 C 343.415 83.955,343.057 85.306,343.728 89.005 C 344.956 95.778,345.295 98.098,346.056 104.945 C 346.506 108.993,347.137 114.590,347.459 117.383 C 347.780 120.176,348.342 126.104,348.708 130.557 L 349.373 138.653 348.446 139.639 C 345.817 142.437,343.425 139.981,343.127 134.180 C 342.874 129.250,340.889 109.995,340.006 103.906 C 338.586 94.113,337.838 89.255,337.314 86.424 C 337.006 84.760,336.558 81.904,336.319 80.078 C 334.690 67.658,328.453 58.584,321.087 57.916 C 313.671 57.243,309.871 61.203,311.624 67.773 C 315.605 82.700,319.082 101.801,321.885 124.158 C 322.851 131.865,322.538 133.295,319.833 133.519 C 317.436 133.718,317.134 132.827,315.452 120.600 C 314.647 114.748,313.830 109.170,313.638 108.203 C 313.446 107.236,312.926 104.248,312.484 101.563 C 311.631 96.389,310.145 88.594,309.207 84.375 C 304.513 63.272,303.256 59.675,299.381 56.273 C 295.541 52.902,289.117 51.770,284.615 53.672 M104.332 146.649 C 109.742 147.651,114.953 149.214,118.150 150.795 C 119.549 151.486,120.339 153.910,119.497 154.925 C 118.878 155.670,118.397 155.593,112.109 153.753 C 92.601 148.043,65.443 151.098,46.555 161.128 C 43.592 162.701,41.975 162.894,41.602 161.719 C 40.114 157.033,63.398 148.283,83.594 145.937 C 86.822 145.562,101.112 146.052,104.332 146.649 M296.555 162.393 C 305.123 165.202,322.807 175.753,329.195 181.867 C 330.980 183.576,331.216 184.353,330.246 185.324 C 329.293 186.276,328.822 186.101,325.734 183.647 C 316.236 176.100,303.996 168.910,293.998 165.007 C 290.052 163.467,289.395 162.925,290.239 161.909 C 290.953 161.049,292.911 161.199,296.555 162.393 M282.509 168.566 C 293.923 173.346,303.132 185.247,308.194 201.758 C 310.784 210.207,311.053 212.286,309.639 212.930 C 307.877 213.733,306.925 212.714,306.085 209.127 C 301.139 188.018,289.958 173.405,275.195 168.757 C 272.976 168.058,272.749 167.686,274.263 167.229 C 276.252 166.629,278.915 167.060,282.509 168.566 " stroke="none" fill="#fbbb30" fill-rule="evenodd"></path>
<path id="path2" d="M52.051 78.004 C 52.427 78.102,53.042 78.102,53.418 78.004 C 53.794 77.905,53.486 77.825,52.734 77.825 C 51.982 77.825,51.675 77.905,52.051 78.004 M60.268 128.711 C 60.271 129.785,60.347 130.178,60.437 129.584 C 60.526 128.991,60.524 128.112,60.431 127.631 C 60.339 127.151,60.265 127.637,60.268 128.711 M368.458 129.102 C 368.462 129.961,368.542 130.267,368.636 129.781 C 368.729 129.295,368.726 128.592,368.628 128.218 C 368.530 127.845,368.454 128.242,368.458 129.102 M54.414 132.813 C 54.414 133.994,54.487 134.478,54.577 133.887 C 54.666 133.296,54.666 132.329,54.577 131.738 C 54.487 131.147,54.414 131.631,54.414 132.813 M108.692 132.617 C 108.697 133.477,108.777 133.782,108.870 133.296 C 108.963 132.810,108.960 132.107,108.862 131.734 C 108.764 131.360,108.688 131.758,108.692 132.617 M348.935 136.328 C 348.935 137.295,349.011 137.690,349.104 137.207 C 349.197 136.724,349.197 135.933,349.104 135.449 C 349.011 134.966,348.935 135.361,348.935 136.328 M33.294 136.719 C 33.294 137.471,33.374 137.778,33.472 137.402 C 33.571 137.026,33.571 136.411,33.472 136.035 C 33.374 135.659,33.294 135.967,33.294 136.719 M369.315 156.445 C 369.315 163.320,369.368 166.078,369.433 162.573 C 369.498 159.068,369.498 153.443,369.433 150.073 C 369.368 146.703,369.315 149.570,369.315 156.445 M32.960 150.000 C 32.960 152.471,33.024 153.481,33.101 152.246 C 33.179 151.011,33.179 148.989,33.101 147.754 C 33.024 146.519,32.960 147.529,32.960 150.000 M85.254 145.972 C 85.630 146.071,86.245 146.071,86.621 145.972 C 86.997 145.874,86.689 145.794,85.938 145.794 C 85.186 145.794,84.878 145.874,85.254 145.972 M88.379 150.678 C 89.399 150.758,91.069 150.758,92.090 150.678 C 93.110 150.597,92.275 150.531,90.234 150.531 C 88.193 150.531,87.358 150.597,88.379 150.678 M119.577 153.730 C 119.552 154.171,119.356 154.743,119.142 155.001 C 118.928 155.260,119.033 155.228,119.375 154.930 C 119.717 154.633,119.913 154.061,119.809 153.659 C 119.640 153.002,119.617 153.009,119.577 153.730 M273.533 167.447 C 272.993 167.665,273.253 168.359,273.874 168.359 C 274.089 168.359,274.165 168.199,274.044 168.002 C 273.923 167.806,274.044 167.556,274.314 167.447 C 274.584 167.338,274.629 167.249,274.414 167.249 C 274.199 167.249,273.803 167.338,273.533 167.447 M196.875 167.816 C 186.625 168.421,180.884 170.024,169.837 175.367 C 163.861 178.256,163.790 178.340,167.030 178.672 C 168.437 178.816,173.311 180.005,177.860 181.314 C 184.366 183.186,186.894 183.736,189.694 183.890 L 193.255 184.085 197.507 181.837 C 207.271 176.674,212.892 173.836,216.113 172.442 C 217.993 171.628,219.531 170.844,219.531 170.698 C 219.531 169.504,203.286 167.438,196.875 167.816 M227.246 173.323 C 227.729 173.416,228.125 173.738,228.125 174.038 C 228.125 174.384,228.360 174.495,228.766 174.339 C 229.631 174.007,228.363 173.021,227.171 173.100 C 226.439 173.148,226.446 173.168,227.246 173.323 M32.924 175.977 C 32.927 177.051,33.003 177.444,33.093 176.850 C 33.183 176.256,33.180 175.377,33.087 174.897 C 32.995 174.417,32.921 174.902,32.924 175.977 M224.791 175.602 C 225.858 175.894,226.797 176.067,226.879 175.986 C 227.074 175.791,224.189 174.995,223.438 175.037 C 223.115 175.055,223.724 175.309,224.791 175.602 M234.255 176.031 C 233.839 176.447,234.361 176.934,234.971 176.700 C 235.285 176.579,235.445 176.323,235.326 176.131 C 235.073 175.721,234.609 175.678,234.255 176.031 M235.938 176.751 C 235.938 176.980,239.245 178.906,239.638 178.906 C 240.156 178.906,238.054 177.387,236.960 176.971 C 236.398 176.757,235.938 176.658,235.938 176.751 M368.458 179.102 C 368.462 179.961,368.542 180.267,368.636 179.781 C 368.729 179.295,368.726 178.592,368.628 178.218 C 368.530 177.845,368.454 178.242,368.458 179.102 M233.398 178.707 C 234.043 178.992,234.653 179.143,234.754 179.044 C 235.058 178.747,233.846 178.135,233.008 178.163 C 232.403 178.183,232.492 178.306,233.398 178.707 M238.781 181.480 C 239.399 181.815,239.752 182.255,239.600 182.501 C 239.440 182.759,239.511 182.823,239.775 182.659 C 240.019 182.509,240.573 182.576,241.008 182.808 C 241.442 183.041,241.797 183.144,241.797 183.038 C 241.797 182.768,238.486 180.856,238.052 180.875 C 237.856 180.884,238.184 181.156,238.781 181.480 M243.783 184.501 C 243.872 184.571,244.561 185.035,245.313 185.533 L 246.680 186.438 245.623 185.406 C 245.041 184.839,244.353 184.375,244.093 184.375 C 243.833 184.375,243.693 184.432,243.783 184.501 M250.793 186.404 C 251.419 187.090,252.036 187.547,252.164 187.420 C 252.405 187.178,250.408 185.156,249.928 185.156 C 249.777 185.156,250.166 185.718,250.793 186.404 M253.272 189.355 C 254.048 192.005,256.460 209.950,256.883 216.211 L 257.147 220.117 260.193 223.242 C 261.869 224.961,264.228 227.598,265.435 229.102 C 266.642 230.605,267.916 232.185,268.265 232.612 C 268.615 233.039,269.936 235.192,271.201 237.397 C 273.872 242.051,273.517 241.789,274.647 239.941 C 278.464 233.703,278.491 233.574,277.177 228.015 C 273.665 213.149,268.254 203.370,257.514 192.480 C 253.789 188.703,252.887 188.039,253.272 189.355 M137.997 199.430 C 130.041 210.073,123.204 226.462,122.892 235.633 C 122.831 237.412,122.554 241.332,122.275 244.344 C 121.964 247.698,121.878 251.147,122.053 253.241 L 122.337 256.660 124.351 258.195 C 126.764 260.036,126.710 260.077,127.680 255.664 C 128.925 249.995,134.186 237.972,137.249 233.796 C 137.737 233.132,137.741 232.874,137.276 231.975 C 133.521 224.715,133.717 212.242,137.743 202.224 C 139.712 197.325,139.732 197.108,137.997 199.430 M141.391 201.201 C 140.945 202.076,140.634 202.937,140.700 203.114 C 140.766 203.291,141.205 202.575,141.674 201.523 C 142.709 199.205,142.519 198.990,141.391 201.201 M138.867 208.594 C 138.719 209.269,138.679 209.903,138.778 210.002 C 138.878 210.102,139.072 209.622,139.209 208.936 C 139.535 207.307,139.219 206.992,138.867 208.594 M138.201 211.018 C 138.104 211.296,138.011 213.193,137.995 215.234 L 137.966 218.945 138.297 214.854 C 138.613 210.945,138.588 209.913,138.201 211.018 M188.281 219.059 C 180.315 225.768,173.013 233.238,169.553 238.218 L 168.647 239.522 170.893 245.835 C 174.110 254.881,178.229 262.740,182.953 268.844 C 184.140 270.378,216.437 266.536,217.930 264.683 C 218.480 264.000,220.608 255.974,221.253 252.148 C 221.579 250.215,222.379 245.381,223.031 241.406 C 223.684 237.432,224.316 233.824,224.436 233.388 C 224.973 231.443,209.968 222.094,198.242 217.068 C 192.841 214.753,193.567 214.608,188.281 219.059 M138.380 221.289 C 138.384 222.148,138.464 222.454,138.558 221.968 C 138.651 221.482,138.647 220.779,138.550 220.406 C 138.452 220.032,138.375 220.430,138.380 221.289 M176.151 222.949 L 174.805 224.414 176.270 223.068 C 177.633 221.815,177.914 221.484,177.616 221.484 C 177.550 221.484,176.891 222.144,176.151 222.949 M39.295 235.786 C 36.320 243.538,77.516 252.592,105.078 250.245 C 114.664 249.429,114.618 249.444,114.767 247.142 C 114.884 245.354,114.607 244.924,113.836 245.695 C 111.840 247.691,91.107 248.690,79.883 247.331 C 71.029 246.260,61.260 244.537,57.227 243.335 C 50.920 241.456,44.970 238.804,42.086 236.586 C 40.005 234.985,39.642 234.881,39.295 235.786 M358.256 241.586 C 354.176 245.528,341.002 249.651,325.195 251.934 C 309.471 254.204,293.924 253.741,287.881 250.821 C 286.946 250.370,286.127 250.000,286.059 250.000 C 285.221 250.000,286.090 253.873,287.012 254.244 C 292.700 256.537,310.026 257.312,320.117 255.726 C 339.065 252.747,347.028 250.364,359.048 244.077 L 361.651 242.716 360.865 241.475 C 359.921 239.985,359.913 239.985,358.256 241.586 M87.207 240.894 C 87.583 240.993,88.198 240.993,88.574 240.894 C 88.950 240.796,88.643 240.716,87.891 240.716 C 87.139 240.716,86.831 240.796,87.207 240.894 M36.976 243.848 C 36.857 244.331,36.307 248.066,35.756 252.148 C 35.204 256.230,34.327 262.031,33.807 265.039 C 33.288 268.047,32.750 271.475,32.614 272.656 C 32.477 273.838,32.285 275.090,32.187 275.439 C 31.275 278.695,39.396 282.954,52.930 286.316 C 55.723 287.010,60.029 288.078,62.500 288.689 C 76.117 292.058,90.518 293.092,103.125 291.604 C 112.990 290.441,113.381 290.044,114.674 279.883 C 114.811 278.809,115.276 276.260,115.708 274.219 C 116.287 271.483,116.430 269.789,116.250 267.773 C 116.116 266.270,115.789 262.482,115.523 259.358 L 115.039 253.676 113.672 253.979 C 103.309 256.272,74.760 254.980,59.961 251.548 C 54.105 250.189,43.114 246.113,38.758 243.683 C 37.168 242.797,37.238 242.790,36.976 243.848 M311.035 246.363 C 311.411 246.461,312.026 246.461,312.402 246.363 C 312.778 246.265,312.471 246.184,311.719 246.184 C 310.967 246.184,310.659 246.265,311.035 246.363 M360.547 248.671 C 351.679 255.004,324.199 260.914,303.539 260.933 C 297.383 260.938,295.071 260.618,289.453 258.983 L 285.742 257.903 285.492 258.737 C 285.354 259.195,284.857 261.681,284.388 264.261 L 283.534 268.953 285.123 278.715 C 287.529 293.494,287.515 293.457,291.691 295.412 C 300.450 299.510,322.648 297.963,344.531 291.728 C 360.999 287.036,364.644 285.656,366.958 283.239 L 368.096 282.051 367.269 276.279 C 366.813 273.105,366.242 268.486,365.999 266.016 C 364.915 254.998,363.515 247.643,362.510 247.675 C 362.182 247.686,361.299 248.134,360.547 248.671 M232.813 279.492 C 234.197 280.889,235.417 282.031,235.524 282.031 C 235.632 282.031,234.587 280.889,233.203 279.492 C 231.819 278.096,230.599 276.953,230.491 276.953 C 230.384 276.953,231.428 278.096,232.813 279.492 M264.258 281.211 C 263.828 281.361,261.750 282.311,259.640 283.320 C 257.531 284.330,255.685 285.157,255.539 285.157 C 255.393 285.157,253.340 285.920,250.977 286.852 C 248.613 287.784,245.449 288.951,243.945 289.446 C 239.657 290.858,238.165 292.444,234.199 299.805 C 231.022 305.700,228.897 309.048,226.445 312.019 C 225.157 313.580,224.207 314.962,224.335 315.090 C 224.732 315.488,229.407 316.378,231.173 316.393 C 232.169 316.401,233.461 316.756,234.345 317.265 L 235.838 318.124 239.225 315.996 C 247.875 310.560,256.985 302.187,263.430 293.750 L 266.861 289.258 266.623 286.532 C 266.378 283.733,265.681 280.829,265.270 280.898 C 265.143 280.920,264.688 281.060,264.258 281.211 M34.621 286.035 C 34.111 287.939,34.320 288.181,38.184 290.155 C 55.538 299.022,89.800 304.437,101.758 300.204 C 105.767 298.785,109.778 295.164,106.543 295.884 C 91.185 299.303,61.297 295.256,39.976 286.871 C 34.913 284.880,34.930 284.883,34.621 286.035 M363.425 290.408 C 360.198 291.810,343.703 297.004,337.305 298.633 C 333.453 299.613,332.523 299.780,324.023 301.014 C 319.028 301.740,304.090 301.858,297.863 301.222 C 293.452 300.771,293.467 300.768,294.301 302.041 C 297.390 306.755,314.965 307.286,335.156 303.275 C 339.471 302.418,349.293 300.028,350.195 299.615 C 350.625 299.419,352.822 298.542,355.078 297.666 C 362.466 294.798,365.430 293.015,365.430 291.439 C 365.430 289.870,365.078 289.689,363.425 290.408 M142.969 293.466 C 142.969 294.219,143.320 296.544,143.750 298.633 C 144.180 300.721,144.531 302.841,144.531 303.344 C 144.531 304.219,147.643 307.095,152.539 310.746 C 163.599 318.991,179.215 325.273,182.792 322.915 C 183.555 322.412,185.278 321.509,186.621 320.908 C 188.709 319.974,189.886 318.750,188.697 318.750 C 188.241 318.750,183.100 314.694,179.567 311.548 C 178.067 310.212,175.868 307.647,174.522 305.664 C 173.210 303.730,171.389 301.258,170.475 300.170 L 168.813 298.191 164.192 297.537 C 159.075 296.813,152.147 295.141,147.656 293.548 C 142.935 291.872,142.969 291.873,142.969 293.466 M89.160 308.472 C 89.536 308.571,90.151 308.571,90.527 308.472 C 90.903 308.374,90.596 308.294,89.844 308.294 C 89.092 308.294,88.784 308.374,89.160 308.472 " stroke="none" fill="#9a1f32" fill-rule="evenodd"></path>
<path id="path4" d="M113.574 44.026 C 114.058 44.119,114.849 44.119,115.332 44.026 C 115.815 43.933,115.420 43.856,114.453 43.856 C 113.486 43.856,113.091 43.933,113.574 44.026 M112.598 50.660 C 112.974 50.758,113.589 50.758,113.965 50.660 C 114.341 50.562,114.033 50.481,113.281 50.481 C 112.529 50.481,112.222 50.562,112.598 50.660 M332.422 55.591 C 332.422 55.658,332.993 56.229,333.691 56.861 L 334.961 58.008 333.814 56.738 C 332.744 55.555,332.422 55.289,332.422 55.591 M82.324 56.135 C 82.808 56.228,83.599 56.228,84.082 56.135 C 84.565 56.042,84.170 55.966,83.203 55.966 C 82.236 55.966,81.841 56.042,82.324 56.135 M350.688 73.323 C 351.174 73.417,351.877 73.413,352.251 73.315 C 352.624 73.217,352.227 73.141,351.367 73.145 C 350.508 73.150,350.202 73.230,350.688 73.323 M213.458 125.879 L 211.914 127.539 213.574 125.995 C 215.118 124.559,215.414 124.219,215.118 124.219 C 215.055 124.219,214.307 124.966,213.458 125.879 M242.562 128.223 C 243.520 129.243,244.355 130.078,244.417 130.078 C 244.711 130.078,244.400 129.727,242.676 128.109 L 240.820 126.367 242.562 128.223 M26.669 139.453 C 26.669 140.420,26.745 140.815,26.838 140.332 C 26.931 139.849,26.931 139.058,26.838 138.574 C 26.745 138.091,26.669 138.486,26.669 139.453 M375.934 150.000 C 375.934 152.900,375.996 154.087,376.071 152.637 C 376.146 151.187,376.146 148.813,376.071 147.363 C 375.996 145.913,375.934 147.100,375.934 150.000 M26.270 147.852 C 26.275 148.711,26.355 149.017,26.448 148.531 C 26.542 148.045,26.538 147.342,26.440 146.968 C 26.342 146.595,26.266 146.992,26.270 147.852 M375.926 163.281 C 375.926 165.537,375.990 166.460,376.069 165.332 C 376.148 164.204,376.148 162.358,376.069 161.230 C 375.990 160.103,375.926 161.025,375.926 163.281 M375.481 175.391 C 375.481 176.143,375.562 176.450,375.660 176.074 C 375.758 175.698,375.758 175.083,375.660 174.707 C 375.562 174.331,375.481 174.639,375.481 175.391 M26.270 178.320 C 26.275 179.180,26.355 179.485,26.448 178.999 C 26.542 178.513,26.538 177.810,26.440 177.437 C 26.342 177.063,26.266 177.461,26.270 178.320 M153.104 185.840 L 151.758 187.305 153.223 185.959 C 154.028 185.218,154.688 184.559,154.688 184.494 C 154.688 184.195,154.357 184.476,153.104 185.840 M173.416 225.684 L 172.070 227.148 173.535 225.802 C 174.899 224.549,175.180 224.219,174.881 224.219 C 174.816 224.219,174.157 224.878,173.416 225.684 M278.830 241.309 C 278.762 241.470,278.809 242.832,278.933 244.336 L 279.159 247.070 279.228 244.043 C 279.290 241.301,279.172 240.490,278.830 241.309 M279.018 249.414 C 279.021 250.488,279.097 250.881,279.187 250.288 C 279.276 249.694,279.274 248.815,279.181 248.334 C 279.089 247.854,279.015 248.340,279.018 249.414 M122.689 261.426 C 122.778 261.479,123.379 261.963,124.023 262.500 L 125.195 263.477 124.248 262.402 C 123.727 261.812,123.127 261.328,122.914 261.328 C 122.700 261.328,122.599 261.372,122.689 261.426 M25.497 275.781 C 25.497 276.748,25.573 277.144,25.666 276.660 C 25.759 276.177,25.759 275.386,25.666 274.902 C 25.573 274.419,25.497 274.814,25.497 275.781 M230.664 283.594 C 231.722 284.668,232.676 285.547,232.783 285.547 C 232.891 285.547,232.113 284.668,231.055 283.594 C 229.997 282.520,229.043 281.641,228.936 281.641 C 228.828 281.641,229.606 282.520,230.664 283.594 M369.311 297.363 L 368.164 298.633 369.434 297.486 C 370.132 296.854,370.703 296.283,370.703 296.216 C 370.703 295.914,370.381 296.180,369.311 297.363 M181.641 307.617 C 182.369 308.369,183.054 308.984,183.161 308.984 C 183.268 308.984,182.760 308.369,182.031 307.617 C 181.302 306.865,180.618 306.250,180.511 306.250 C 180.403 306.250,180.912 306.865,181.641 307.617 M86.626 308.479 C 87.112 308.573,87.815 308.569,88.188 308.472 C 88.562 308.374,88.164 308.297,87.305 308.302 C 86.445 308.306,86.140 308.386,86.626 308.479 M91.699 308.479 C 92.183 308.572,92.974 308.572,93.457 308.479 C 93.940 308.386,93.545 308.310,92.578 308.310 C 91.611 308.310,91.216 308.386,91.699 308.479 M220.489 313.379 L 218.945 315.039 220.605 313.495 C 221.519 312.646,222.266 311.899,222.266 311.835 C 222.266 311.539,221.925 311.835,220.489 313.379 M309.290 312.788 C 310.426 312.868,312.183 312.867,313.197 312.787 C 314.210 312.706,313.281 312.642,311.133 312.643 C 308.984 312.644,308.155 312.709,309.290 312.788 M198.340 317.463 C 198.823 317.556,199.614 317.556,200.098 317.463 C 200.581 317.370,200.186 317.294,199.219 317.294 C 198.252 317.294,197.856 317.370,198.340 317.463 M195.020 321.769 C 195.825 321.853,197.144 321.853,197.949 321.769 C 198.755 321.685,198.096 321.616,196.484 321.616 C 194.873 321.616,194.214 321.685,195.020 321.769 M199.128 326.064 C 199.830 326.151,200.885 326.149,201.472 326.060 C 202.059 325.971,201.484 325.900,200.195 325.902 C 198.906 325.904,198.426 325.977,199.128 326.064 M195.801 332.301 C 196.177 332.399,196.792 332.399,197.168 332.301 C 197.544 332.202,197.236 332.122,196.484 332.122 C 195.732 332.122,195.425 332.202,195.801 332.301 M204.985 332.308 C 205.471 332.401,206.174 332.397,206.548 332.300 C 206.921 332.202,206.523 332.125,205.664 332.130 C 204.805 332.134,204.499 332.214,204.985 332.308 " stroke="none" fill="#9e9798" fill-rule="evenodd"></path>
</g></svg>