<svg version="1.1" id="Layer_1" xmlns="http://www.w3.org/2000/svg" xmlns:xlink="http://www.w3.org/1999/xlink" x="0px" y="0px"
	 width="100%" viewBox="0 0 1024 1024" enable-background="new 0 0 1024 1024" xml:space="preserve">
<path fill="#000000" opacity="1.000000" stroke="none" 
	d="
M566.737915,364.278931 
	C567.847046,355.737762 573.325623,351.145905 579.827332,347.243378 
	C603.829224,332.836578 626.905518,316.985962 650.424866,301.826080 
	C652.066284,300.768097 653.901184,299.880585 655.187866,297.733032 
	C646.129089,291.766724 636.706360,286.602112 626.860168,282.206177 
	C599.596985,270.034180 571.145569,262.438568 541.320862,260.281097 
	C516.031616,258.451691 490.901459,259.183838 465.729736,263.000793 
	C412.359009,271.093689 366.140594,293.850311 326.730499,330.217529 
	C300.735168,354.205750 281.131439,383.065552 266.486115,415.333344 
	C257.204956,435.782440 250.488724,456.922638 247.611725,479.198059 
	C244.896988,500.217102 245.308319,521.372253 245.322617,542.505615 
	C245.335938,562.190796 229.539688,577.633545 209.852173,577.320801 
	C191.432907,577.028137 176.938187,562.570129 176.679230,544.164490 
	C176.527084,533.351685 175.362350,522.587402 175.641785,511.743286 
	C177.536713,438.206055 198.947083,371.544830 244.598541,313.157837 
	C278.304108,270.049316 320.662842,238.341461 370.655853,216.730759 
	C401.516235,203.390594 433.856354,195.262466 467.302887,191.565079 
	C498.702026,188.094040 530.151978,187.999908 561.436829,191.918411 
	C601.358398,196.918655 639.430542,208.524857 675.278015,227.038605 
	C676.896057,227.874283 678.540466,228.658905 680.734314,229.745499 
	C680.441956,220.023239 677.966980,211.123886 676.191772,202.142654 
	C672.603455,183.988571 667.007690,166.405792 660.616760,149.060074 
	C658.952271,144.542755 657.535522,139.902115 658.224243,134.985199 
	C660.798828,116.606285 681.837646,114.857414 691.410461,123.207924 
	C697.086121,128.158890 701.457581,134.317688 706.348694,139.980133 
	C752.085266,192.929840 797.713318,245.973389 843.411194,298.956573 
	C850.454041,307.122253 853.485901,316.145172 849.680542,326.635071 
	C845.798950,337.334930 836.985901,341.481415 826.614929,343.270691 
	C788.168579,349.903931 749.724426,356.551270 711.263489,363.099060 
	C671.650024,369.843079 632.021362,376.498138 592.387390,383.120453 
	C589.142761,383.662598 585.725586,384.235199 582.526855,383.793243 
	C572.296692,382.379852 567.037476,375.780792 566.737915,364.278931 
z"/>
<path fill="#000000" opacity="1.000000" stroke="none" 
	d="
M742.254395,642.260498 
	C758.058105,617.667969 769.832520,591.719604 776.067688,563.437988 
	C778.750366,551.269653 780.210388,538.948853 780.837769,526.454468 
	C781.598511,511.303497 781.433105,496.163605 781.673828,481.017975 
	C781.929199,464.951782 797.432495,450.362396 813.491882,449.504425 
	C834.262756,448.394714 849.223938,462.273376 849.316833,484.523285 
	C849.376648,498.853394 850.019592,513.231079 849.108582,527.504944 
	C847.069031,559.460938 841.141174,590.707947 830.311157,620.982605 
	C815.235168,663.126648 792.805481,700.649475 761.821472,733.080200 
	C714.971802,782.117371 658.264954,813.276245 592.092163,827.506165 
	C571.434998,831.948364 550.565552,834.373840 529.447876,835.528259 
	C479.532654,838.256897 431.408325,830.324829 384.824768,812.547607 
	C370.981140,807.264648 357.561493,800.992065 344.094452,793.197144 
	C345.866425,806.978943 348.720795,819.872681 351.813568,832.699036 
	C355.128296,846.445740 359.219421,859.974304 364.401154,873.157532 
	C366.041473,877.330872 367.251648,881.583374 367.426147,886.190247 
	C367.710999,893.711548 365.316132,899.765076 358.538605,903.286438 
	C351.545563,906.919739 344.388275,906.348633 337.561401,902.498901 
	C334.934479,901.017517 332.860321,898.848999 330.905945,896.525879 
	C285.111816,842.093018 238.505554,788.355225 192.115433,734.432434 
	C188.096985,729.761475 183.835617,725.274719 180.113602,720.378174 
	C168.265213,704.790649 175.874329,684.434814 195.158722,680.748169 
	C216.181717,676.729309 237.319534,673.309326 258.413513,669.664185 
	C284.417755,665.170471 310.424377,660.690125 336.437408,656.247681 
	C365.066437,651.358459 393.687378,646.417908 422.348724,641.725098 
	C429.968201,640.477600 437.462646,637.840515 445.454041,639.527405 
	C457.954102,642.166138 464.176849,656.991943 457.119934,667.727234 
	C454.676331,671.444580 451.237549,674.019348 447.524567,676.323547 
	C422.756470,691.694031 398.243134,707.459961 374.071838,723.754761 
	C372.995850,724.480164 371.992798,725.313782 370.349579,726.554810 
	C377.463654,731.397400 384.744690,734.941956 391.955597,738.517029 
	C419.325806,752.086731 448.182526,760.495422 478.614899,763.827087 
	C502.551331,766.447632 526.312561,766.130249 550.171631,762.899719 
	C599.134949,756.270081 643.085449,737.882935 682.136902,707.708496 
	C705.813354,689.414062 725.724792,667.627258 742.254395,642.260498 
z"/>
</svg>